<?xml version="1.0" encoding="UTF-8" standalone="no"?>
<!-- Created with Inkscape (http://www.inkscape.org/) -->

<svg
   width="43mm"
   height="44mm"
   viewBox="0 0 43 44"
   version="1.1"
   id="svg5"
   inkscape:version="1.2.2 (732a01da63, 2022-12-09)"
   sodipodi:docname="ЛОГОТИП.svg"
   xmlns:inkscape="http://www.inkscape.org/namespaces/inkscape"
   xmlns:sodipodi="http://sodipodi.sourceforge.net/DTD/sodipodi-0.dtd"
   xmlns="http://www.w3.org/2000/svg"
   xmlns:svg="http://www.w3.org/2000/svg">
  <sodipodi:namedview
     id="namedview7"
     pagecolor="#ffffff"
     bordercolor="#000000"
     borderopacity="0.25"
     inkscape:showpageshadow="2"
     inkscape:pageopacity="0.0"
     inkscape:pagecheckerboard="0"
     inkscape:deskcolor="#d1d1d1"
     inkscape:document-units="mm"
     showgrid="false"
     inkscape:zoom="3.6203867"
     inkscape:cx="60.628882"
     inkscape:cy="82.725969"
     inkscape:window-width="1920"
     inkscape:window-height="991"
     inkscape:window-x="-9"
     inkscape:window-y="-9"
     inkscape:window-maximized="1"
     inkscape:current-layer="g15791" />
  <defs
     id="defs2" />
  <g
     inkscape:label="Слой 1"
     inkscape:groupmode="layer"
     id="layer1">
    <text
       xml:space="preserve"
       style="font-size:3.175px;fill:#ffffff;fill-opacity:1;stroke:#ffffff;stroke-width:0;stroke-linecap:round;stroke-linejoin:round;stroke-dasharray:none;stroke-opacity:1"
       x="82.225471"
       y="91.252495"
       id="text13019"><tspan
         sodipodi:role="line"
         id="tspan13017"
         style="stroke-width:0"
         x="82.225471"
         y="91.252495" /></text>
    <g
       id="g15791"
       transform="translate(-41.853065,-57.27183)">
      <path
         style="fill:#0000ff;stroke:#00d6fd;stroke-width:0.0737133;stroke-linecap:round;stroke-linejoin:round;stroke-dasharray:none;stroke-opacity:1"
         d="M 41.903798,65.407694 C 55.193936,61.359927 70.378362,61.116109 84.847814,64.839374 82.749039,77.966857 76.454019,89.530221 63.407378,101.94044 51.141222,91.666424 44.791933,78.635226 41.903798,65.407694 Z"
         id="path5240"
         sodipodi:nodetypes="cccc" />
      <g
         id="g12951"
         transform="translate(-0.003324,-0.13229167)">
        <g
           id="g12963"
           transform="translate(-44.78073,1.3890625)">
          <path
             style="fill:#000000;fill-opacity:1;stroke:#ffffff;stroke-width:0.13;stroke-dasharray:none;stroke-opacity:1"
             d="M 104.46016,94.178331 C 97.412028,92.898616 92.016858,87.65201 90.459128,80.562855 c -0.33329,-1.516823 -0.30985,-5.264627 0.0427,-6.826915 1.36905,-6.066714 5.64164,-10.869149 11.366372,-12.775928 2.18929,-0.729201 3.1037,-0.861471 5.95567,-0.86149 2.23774,-1.3e-5 2.76268,0.03583 3.799,0.259374 7.16678,1.545968 12.52143,7.090613 13.67086,14.155919 0.22604,1.389404 0.22105,1.306106 0.18736,3.397483 -10e-4,0.07903 -0.18965,2.10301 -0.29957,2.651557 -0.68039,3.395293 -2.25439,6.295305 -4.78071,8.808206 -2.45901,2.445933 -5.09716,3.887151 -8.61259,4.705046 -1.53195,0.356423 -5.6144,0.413372 -7.32805,0.102254 z m 1.99779,-1.529334 c -0.43038,-0.499984 -0.75297,-1.872076 -1.71153,-3.227301 -3.29903,-4.664277 -3.83674,-5.305248 -5.833372,-6.953706 -2.2977,-1.896997 -3.69342,-2.66452 -6.00189,-3.300498 -1.00783,-0.277655 -0.97147,-0.361067 -0.59519,1.365599 1.38937,6.375283 6.63058,11.151321 13.147402,11.980529 0.4544,0.0578 0.60803,0.111803 0.86418,0.119965 l 0.038,-0.03105 z m 5.08117,-0.376807 c 5.23644,-1.098972 9.49769,-4.85469 11.31326,-9.971085 0.27087,-0.763305 0.7277,-2.624697 0.7277,-2.965043 0,-0.100889 -2.47347,0.337064 -3.24567,0.574678 -1.18461,0.364519 -1.84651,0.761697 -3.98633,2.392039 -2.18977,1.668406 -2.5628,2.151508 -4.86278,6.297643 -1.21161,2.184156 -1.93392,3.069349 -2.08758,3.704271 l -0.0732,0.302465 0.54793,-0.08059 c 0.48621,-0.04435 1.05137,-0.125192 1.66667,-0.254325 z m 11.80491,-18.384238 c 0,-0.333009 -0.67488,-2.329081 -1.07315,-3.17399 -2.08807,-4.429851 -6.08051,-7.553675 -10.97043,-8.583658 -1.63375,-0.344127 -4.90734,-0.37772 -6.59962,-0.06773 -5.070542,0.92882 -9.367812,4.271851 -11.400102,8.868642 -0.55104,1.246397 -0.95621,2.553962 -0.8302,2.679238 0.0449,0.04469 1.65895,-0.09156 3.58668,-0.302758 5.983082,-0.655505 7.389662,-0.749155 11.412572,-0.759843 4.78396,-0.01271 9.2916,0.358863 13.86784,1.143152 1.87363,0.321108 2.00641,0.334139 2.00641,0.196946 z"
             id="path3351"
             sodipodi:nodetypes="sssssssssssssccsscsccccssssssccccscssscsssss" />
          <path
             style="fill:#ffffff;fill-opacity:1;stroke:#ffffff;stroke-width:0;stroke-linecap:round;stroke-linejoin:round;stroke-dasharray:none;stroke-opacity:1"
             d="m 121.85549,73.9075 c -5.40458,-0.939225 -9.72827,-1.275512 -15.50988,-1.206334 -3.3092,0.03959 -4.37275,0.105405 -8.055767,0.498483 -4.350195,0.464281 -4.719242,0.500201 -5.348231,0.520544 l -0.635103,0.02054 0.01529,-0.261328 c 0.04757,-0.812452 1.197362,-3.482562 2.078689,-4.827268 2.618068,-3.99459 7.036552,-6.663561 11.640932,-7.031658 1.13723,-0.09092 2.39873,-0.09154 3.54989,-0.0016 4.90744,0.38277 9.54625,3.299424 12.08953,7.601303 0.7441,1.258622 1.70705,3.653265 1.85223,4.606082 l 0.0442,0.290289 -0.29269,-0.0057 c -0.16096,-0.0032 -0.80409,-0.09458 -1.42915,-0.203206 z"
             id="path12872" />
          <path
             style="fill:#ffffff;fill-opacity:1;stroke:#ffffff;stroke-width:0;stroke-linecap:round;stroke-linejoin:round;stroke-dasharray:none;stroke-opacity:1"
             d="m 105.29174,92.668581 c -2.93141,-0.50798 -5.447998,-1.634443 -7.647371,-3.423082 -2.343613,-1.905941 -4.162787,-4.572296 -5.081048,-7.447267 -0.322604,-1.010032 -0.652105,-2.548694 -0.627896,-2.932069 0.01153,-0.182651 0.328775,-0.152193 1.231841,0.118267 2.108418,0.631451 3.574776,1.456491 5.732847,3.225569 1.805087,1.479717 2.682527,2.458981 4.648967,5.188466 1.45248,2.016102 1.93995,2.757695 2.27895,3.466977 0.16738,0.350206 0.43626,0.913736 0.5975,1.252293 0.16124,0.338555 0.30497,0.638638 0.31939,0.666853 0.0457,0.08937 -0.536,0.04293 -1.45318,-0.116007 z"
             id="path12943" />
          <path
             style="fill:#ffffff;fill-opacity:1;stroke:#ffffff;stroke-width:0;stroke-linecap:round;stroke-linejoin:round;stroke-dasharray:none;stroke-opacity:1"
             d="m 109.21938,92.580243 c 0.0972,-0.3629 0.37119,-0.8901 0.99468,-1.913949 0.29855,-0.490262 0.89913,-1.528409 1.33463,-2.306996 2.21254,-3.955654 2.68913,-4.55817 5.00499,-6.327425 1.89184,-1.445331 2.85583,-2.018364 3.92212,-2.33148 0.62678,-0.184051 2.47461,-0.540684 2.94391,-0.568175 l 0.37221,-0.02179 -0.0208,0.238404 c -0.0345,0.395443 -0.47316,2.126575 -0.7284,2.874679 -0.32398,0.949599 -1.13445,2.589043 -1.71049,3.460057 -2.38018,3.599036 -5.93287,6.014467 -10.06035,6.83992 -0.40203,0.0804 -1.96503,0.3122 -2.10512,0.3122 -0.009,0 0.015,-0.114946 0.0527,-0.255433 z"
             id="path12945" />
        </g>
      </g>
      <text
         xml:space="preserve"
         style="font-style:normal;font-variant:normal;font-weight:bold;font-stretch:normal;font-size:5.44704px;font-family:'HP Simplified';-inkscape-font-specification:'HP Simplified, Bold';font-variant-ligatures:normal;font-variant-caps:normal;font-variant-numeric:normal;font-variant-east-asian:normal;fill:#0000ff;fill-opacity:1;stroke:#ffffff;stroke-width:0.2;stroke-linecap:round;stroke-linejoin:round;stroke-dasharray:none;stroke-opacity:1;paint-order:normal"
         x="52.297554"
         y="80.040993"
         id="text13961"><tspan
           sodipodi:role="line"
           id="tspan13959"
           style="font-style:normal;font-variant:normal;font-weight:bold;font-stretch:normal;font-size:5.44704px;font-family:'HP Simplified';-inkscape-font-specification:'HP Simplified, Bold';font-variant-ligatures:normal;font-variant-caps:normal;font-variant-numeric:normal;font-variant-east-asian:normal;fill:#0000ff;fill-opacity:1;stroke-width:0.2;stroke-linecap:round;stroke-linejoin:round;stroke-dasharray:none;paint-order:normal"
           x="52.297554"
           y="80.040993">BANSHEE</tspan></text>
      <text
         xml:space="preserve"
         style="font-style:normal;font-variant:normal;font-weight:bold;font-stretch:normal;font-size:4.43661px;font-family:'HP Simplified';-inkscape-font-specification:'HP Simplified, Bold';font-variant-ligatures:normal;font-variant-caps:normal;font-variant-numeric:normal;font-variant-east-asian:normal;fill:#0000ff;fill-opacity:1;stroke:#000000;stroke-width:0.279471;stroke-linecap:round;stroke-linejoin:round;stroke-dasharray:none;stroke-opacity:1;paint-order:normal"
         x="53.042614"
         y="58.216354"
         id="text15521"
         transform="scale(0.95625761,1.0457433)"><tspan
           sodipodi:role="line"
           id="tspan15519"
           style="stroke:#000000;stroke-width:0.279471;stroke-opacity:1"
           x="53.042614"
           y="58.216354">Автошкола</tspan></text>
      <path
         style="fill:#ffffff;fill-opacity:1;stroke:#000000;stroke-width:0.2;stroke-linecap:round;stroke-linejoin:round;stroke-dasharray:none;stroke-opacity:1;paint-order:normal"
         d="m 64.517481,94.119643 0.11417,-0.545125 c 0.25017,-0.881687 0.720486,-1.647582 1.05029,-2.268398"
         id="path15646"
         sodipodi:nodetypes="ccc" />
      <path
         style="fill:#000000;fill-opacity:1;stroke:#000000;stroke-width:0.2;stroke-linecap:round;stroke-linejoin:round;stroke-dasharray:none;stroke-opacity:1;paint-order:normal"
         d="m 64.218184,93.91851 c 0.01334,0.03994 -0.01868,0.102981 0,0.140316 0.0063,0.01257 0.01709,0.02252 0.02339,0.03508 0.03118,0.06236 -0.01357,0.0089 0.03508,0.08185 0.0061,0.0092 0.01728,0.01421 0.02339,0.02339 0.0092,0.01373 0.0011,0.0245 0.0117,0.03508 0.02021,0.02021 0.06956,-0.01929 0.08185,-0.02339 0.0074,-0.0024 0.0164,0.0035 0.02339,0 0.007,-0.0035 -0.0055,-0.01789 0,-0.02339 0.0028,-0.0028 0.0078,0 0.01169,0 0.0078,-0.0039 0.01722,-0.0055 0.02339,-0.01169 0.0024,-0.0024 0.0662,-0.06999 0.07016,-0.08185 0.0024,-0.0074 -0.0035,-0.01641 0,-0.02339 0.0049,-0.0099 0.01728,-0.01421 0.02339,-0.02339 0.01966,-0.0295 -0.01984,-0.157332 0,-0.187089 0.0061,-0.0092 0.01728,-0.01421 0.02339,-0.02339 0.05895,-0.08843 0.04677,-0.192273 0.04677,-0.292325 0,-0.06082 -0.03016,-0.0954 -0.05846,-0.152009 -0.02027,-0.04053 -0.02838,-0.103595 -0.08185,-0.02339 -0.01572,0.02357 -0.005,0.04342 -0.03508,0.05846 -0.0223,0.01116 -0.02254,-0.01341 -0.03508,0.0117 -0.01553,0.03105 -0.03004,0.07178 -0.04677,0.105238 -0.0062,0.01238 0.0044,0.03352 0,0.04677 -0.0104,0.03118 -0.0285,0.06063 -0.03508,0.09354 -0.0016,0.0076 0.0024,0.01598 0,0.02339 -0.0075,0.02249 -0.04734,0.04847 -0.05846,0.08185 -0.02625,0.07877 0.03996,0.02021 -0.04677,0.128622 z"
         id="path15648" />
    </g>
  </g>
</svg>
